<svg xmlns="http://www.w3.org/2000/svg" width="840" height="184" viewBox="0 0 840 184" role="img" aria-labelledby="title description">
  <title id="title">Juan Manuel Herrera — desarrollo web</title>
  <desc id="description">Una cabecera de estilo retro con una pequeña abeja, inspirada en Mi Colmena.</desc>
  <style>
    .cursor { animation: blink 1.3s steps(1,end) infinite; }
    .bee { animation: float 3.6s ease-in-out infinite; }
    @keyframes blink { 0%,49% { opacity:1; } 50%,100% { opacity:0; } }
    @keyframes float { 0%,100% { transform:translateY(0); } 50% { transform:translateY(-5px); } }
    @media (prefers-reduced-motion:reduce) { .cursor,.bee { animation:none; } }
  </style>
  <rect x="0.5" y="0.5" width="839" height="183" rx="12" fill="#15181e" stroke="#353b45"/>
  <path d="M1 37H839" stroke="#353b45"/>
  <rect x="20" y="16" width="7" height="7" rx="1" fill="#e9bd65"/>
  <rect x="33" y="16" width="7" height="7" rx="1" fill="#7bbaab"/>
  <rect x="46" y="16" width="7" height="7" rx="1" fill="#8e9dba"/>
  <text x="68" y="24" fill="#adb5c3" font-family="monospace" font-size="11" letter-spacing="1">JUNMARANC / PERFIL</text>
  <text x="32" y="96" fill="#f7f5ef" font-family="monospace" font-size="37" font-weight="700" letter-spacing="-0.7">Juan Manuel Herrera</text>
  <rect class="cursor" x="451" y="68" width="13" height="31" fill="#e9bd65"/>
  <text x="33" y="128" fill="#9fc8be" font-family="monospace" font-size="13" letter-spacing="1">DESARROLLO WEB · PYTHON + DJANGO</text>
  <text x="33" y="154" fill="#adb5c3" font-family="monospace" font-size="11">Urrao, Colombia / Aprendiendo y construyendo.</text>
  <g transform="translate(697 68)">
    <g class="bee">
      <g transform="scale(4)" shape-rendering="crispEdges">
        <path d="M5 1H10V3H12V7H6V5H4V2H5Z" fill="#d7edf1"/>
        <path d="M14 1H19V3H20V5H18V7H13V3H14Z" fill="#a9d4df"/>
        <path d="M5 7H20V9H23V16H21V18H6V16H3V14H1V11H3V9H5Z" fill="#e9bd65"/>
        <path d="M8 7H11V18H8ZM15 7H18V18H15Z" fill="#343a43"/>
        <path d="M21 10H23V12H21ZM20 5H22V7H20ZM23 3H25V5H23ZM6 18H8V20H6ZM15 18H17V20H15Z" fill="#f7f5ef"/>
        <rect x="20" y="13" width="2" height="2" fill="#b17c35"/>
      </g>
    </g>
  </g>
</svg>
